<svg width="70" height="71" viewBox="0 0 70 71" fill="none" xmlns="http://www.w3.org/2000/svg">
<g clip-path="url(#clip0_1_2)">
<path d="M52.7873 41.0607C52.7873 28.3378 42.5008 18.0241 29.8116 18.0241C17.1224 18.0241 6.83594 28.3378 6.83594 41.0607C6.83594 53.7835 17.1224 64.0973 29.8116 64.0973C42.5008 64.0973 52.7873 53.7835 52.7873 41.0607V41.0607Z" fill="#89C8FD"/>
<path d="M29.8118 18.0241C28.6326 18.0241 27.4737 18.1133 26.3425 18.2853C37.3852 19.9622 45.8484 29.5202 45.8484 41.0607C45.8484 52.6011 37.3852 62.1592 26.3425 63.8361C27.4737 64.0081 28.6326 64.0973 29.8118 64.0973C42.501 64.0973 52.7875 53.7835 52.7875 41.0607C52.7875 28.3378 42.501 18.0241 29.8118 18.0241V18.0241Z" fill="#60B6FF"/>
<path d="M26.8253 26.977C23.2861 29.195 20.6313 32.7433 22.6223 36.7359C24.6132 40.728 29.0374 39.1754 33.1298 38.6211C37.2223 38.0667 34.1253 50.709 36.5585 53.814C38.9917 56.919 45.849 50.709 45.1857 46.7163C44.203 40.8054 43.8585 38.7316 51.8219 34.5179L51.8432 34.5099C49.1591 25.4208 41.0339 18.6767 31.2505 18.0706L31.2494 18.1053C31.2494 18.1053 30.3645 24.7591 26.8253 26.977Z" fill="#BAEB6C"/>
<path d="M44.2065 23.1072C44.2078 23.1081 44.2091 23.1094 44.2104 23.1102C44.2091 23.1094 44.2078 23.1085 44.2065 23.1072Z" fill="#BAEB6C"/>
<path d="M47.0164 25.7946C47.0164 25.795 47.0168 25.7955 47.0172 25.7955C47.0168 25.795 47.0168 25.795 47.0164 25.7946Z" fill="#BAEB6C"/>
<path d="M14.5483 51.485C13.4855 49.8641 16.4287 46.0515 17.092 43.1681C17.7558 40.2847 13.7739 40.5063 12.5573 39.5082C11.3407 38.51 9.6814 34.1852 8.46481 33.1871L8.27042 33.0338C7.34329 35.5332 6.83594 38.2377 6.83594 41.0607C6.83594 48.6753 10.5209 55.4258 16.2001 59.6197L16.207 59.1369C16.207 59.1369 17.092 55.3665 14.5483 51.485V51.485Z" fill="#BAEB6C"/>
<path d="M45.1856 46.7164C45.1808 46.6875 45.176 46.6592 45.1712 46.6304C44.7317 48.4061 44.0865 50.1007 43.2625 51.6868C44.5693 50.1445 45.4425 48.2641 45.1856 46.7164Z" fill="#BAEB6C"/>
<path d="M31.2502 18.0706L31.2492 18.1053C31.2492 18.1053 31.1755 18.6607 30.9854 19.5029C39.0421 22.5524 44.9408 30.011 45.7526 38.9447C46.7678 37.5562 48.6247 36.2093 51.8216 34.5179L51.843 34.5099C49.1588 25.4208 41.0336 18.6767 31.2502 18.0706Z" fill="#96D629"/>
<path d="M29.7802 70.7895C28.153 70.7895 26.5139 70.656 24.876 70.3853C17.0462 69.0923 10.1883 64.8279 5.56606 58.3775C0.943788 51.9272 -0.889632 44.0626 0.403856 36.2333C0.497316 35.6662 1.03458 35.2827 1.60014 35.3762C2.16731 35.4696 2.5513 36.0053 2.45731 36.5725C1.25514 43.8533 2.95986 51.1667 7.25849 57.1652C11.5571 63.1637 17.9338 67.1291 25.2156 68.3318C40.2478 70.8152 54.4943 60.6056 56.9771 45.5756C58.1793 38.2948 56.4746 30.9814 52.1759 24.9829C47.8778 18.9844 41.5007 15.019 34.2193 13.8163C33.6521 13.7228 33.2682 13.1872 33.3616 12.62C33.4556 12.0528 33.9923 11.6694 34.5579 11.7628C42.3883 13.0558 49.2461 17.3202 53.8678 23.7706C58.4901 30.2209 60.3235 38.0855 59.0306 45.9147C57.7376 53.744 53.4726 60.6013 47.0217 65.2231C41.9199 68.8782 35.9342 70.7895 29.7802 70.7895V70.7895Z" fill="#09A66D"/>
<path d="M23.4618 25.9304C12.3513 24.0451 5.45874 10.056 5.45874 10.056C5.45874 10.056 16.5805 -0.876664 27.691 1.00802C38.8016 2.89271 45.6941 16.8818 45.6941 16.8818C45.6941 16.8818 34.5724 27.815 23.4618 25.9304Z" fill="#49CB5C"/>
<path d="M27.6908 1.00797C25.569 0.648013 23.4477 0.756427 21.4028 1.16605C32.0493 3.55649 38.6166 16.8818 38.6166 16.8818C38.6166 16.8818 31.3363 24.0376 22.6718 25.7722C22.9329 25.831 23.1957 25.8849 23.4616 25.9303C34.5722 27.815 45.6939 16.8818 45.6939 16.8818C45.6939 16.8818 38.8014 2.89266 27.6908 1.00797V1.00797Z" fill="#07B128"/>
<path d="M45.0661 15.7202L34.2007 13.8873L24.0514 0.818909C23.2418 0.86644 22.4396 0.970047 21.6482 1.11851L31.1672 13.3751L22.9742 11.993L15.9834 2.9482C15.3276 3.24406 14.6899 3.55809 14.0752 3.88387L19.9483 11.4824L6.40082 9.19667C5.79253 9.72806 5.45874 10.056 5.45874 10.056C5.45874 10.056 5.68198 10.5083 6.11029 11.2587L19.584 13.5316L12.1115 19.3096C12.5927 19.8052 13.0974 20.2949 13.625 20.7702L22.3772 14.0032L31.0508 15.4665L19.2545 24.593C19.9867 24.9348 20.7435 25.2307 21.5237 25.4689L33.8439 15.9381L44.7162 17.772C45.3464 17.2225 45.6941 16.8818 45.6941 16.8818C45.6941 16.8818 45.4789 16.446 45.0661 15.7202V15.7202Z" fill="#09A66D"/>
<path d="M53.2508 12.3514C56.2313 5.29861 66.5584 2.92419 66.5584 2.92419C66.5584 2.92419 72.0533 11.9845 69.0728 19.0372C66.0927 26.09 55.7651 28.4644 55.7651 28.4644C55.7651 28.4644 50.2702 19.4041 53.2508 12.3514Z" fill="#49CB5C"/>
<path d="M66.5587 2.92419C66.5587 2.92419 64.2104 3.46466 61.4301 4.79446C62.8566 7.81616 65.1178 13.9487 62.9671 19.0372C61.4082 22.7265 57.8386 25.1357 54.7886 26.5942C55.3392 27.7605 55.7659 28.4644 55.7659 28.4644C55.7659 28.4644 66.093 26.09 69.0735 19.0372C72.0536 11.9845 66.5587 2.92419 66.5587 2.92419Z" fill="#07B128"/>
<path d="M69.9172 13.2203L61.9757 16.5517L67.1897 4.0863C66.8164 3.3493 66.5585 2.92419 66.5585 2.92419C66.5585 2.92419 66.0672 3.03741 65.2677 3.28735L59.879 16.1699L56.5374 7.94807C55.9713 8.44742 55.4373 8.99002 54.9529 9.57802L58.7394 18.8947L55.1825 27.3979C55.5297 28.0756 55.7652 28.4644 55.7652 28.4644C55.7652 28.4644 56.2992 28.3416 57.158 28.0692L60.8307 19.2893L69.914 15.4794C69.9743 14.7247 69.9711 13.968 69.9172 13.2203V13.2203Z" fill="#09A66D"/>
</g>
<defs>
<clipPath id="clip0_1_2">
<rect width="70" height="70" fill="white" transform="translate(0 0.789551)"/>
</clipPath>
</defs>
</svg>
